<?xml version="1.0" encoding="UTF-8"?>
      <mxfile host="codeviz.app" modified="2025-07-20T15:50:48.570Z" agent="CodeViz Exporter" version="14.6.5" type="device">
        <diagram id="codeviz-diagram" name="System Diagram">
          <mxGraphModel dx="1000" dy="1000" grid="1" gridSize="10" guides="1" tooltips="1" connect="1" arrows="1" fold="1" page="1" pageScale="1" pageWidth="1169" pageHeight="827" math="0" shadow="0">
            <root>
              <mxCell id="0"/>
              <mxCell id="1" parent="0"/>
              <mxCell id="2" value="" style="html=1;whiteSpace=wrap;container=1;fillColor=#dae8fc;strokeColor=#6c8ebf;dashed=1;fillOpacity=20;strokeWidth=2;containerType=none;recursiveResize=0;movable=1;resizable=1;autosize=0;dropTarget=0" vertex="1" parent="1">
                <mxGeometry x="165.43855415304893" y="560" width="882.6313249182951" height="244.07891561478687" as="geometry"/>
              </mxCell>
              <mxCell id="2_label" value="UI Components" style="edgeLabel;html=1;align=center;verticalAlign=middle;resizable=0;labelBackgroundColor=white;spacing=5" vertex="1" parent="1">
                <mxGeometry x="173.43855415304893" y="568" width="806.6313249182951" height="24" as="geometry"/>
              </mxCell>
<mxCell id="3" value="" style="html=1;whiteSpace=wrap;container=1;fillColor=#dae8fc;strokeColor=#6c8ebf;dashed=1;fillOpacity=20;strokeWidth=2;containerType=none;recursiveResize=0;movable=1;resizable=1;autosize=0;dropTarget=0" vertex="1" parent="1">
                <mxGeometry x="248.15783122957373" y="255" width="1477.1048186070163" height="244.07891561478687" as="geometry"/>
              </mxCell>
              <mxCell id="3_label" value="Pages" style="edgeLabel;html=1;align=center;verticalAlign=middle;resizable=0;labelBackgroundColor=white;spacing=5" vertex="1" parent="1">
                <mxGeometry x="256.15783122957373" y="263" width="1401.1048186070163" height="24" as="geometry"/>
              </mxCell>
<mxCell id="5" value="" style="html=1;whiteSpace=wrap;container=1;fillColor=#dae8fc;strokeColor=#6c8ebf;dashed=1;fillOpacity=20;strokeWidth=2;containerType=none;recursiveResize=0;movable=1;resizable=1;autosize=0;dropTarget=0" vertex="1" parent="4">
                <mxGeometry x="50" y="275" width="1477.1048186070163" height="244.07891561478687" as="geometry"/>
              </mxCell>
              <mxCell id="5_label" value="Django Applications" style="edgeLabel;html=1;align=center;verticalAlign=middle;resizable=0;labelBackgroundColor=white;spacing=5" vertex="1" parent="4">
                <mxGeometry x="58" y="283" width="1401.1048186070163" height="24" as="geometry"/>
              </mxCell>
<mxCell id="1" value="" style="html=1;whiteSpace=wrap;container=1;fillColor=#dae8fc;strokeColor=#6c8ebf;dashed=1;fillOpacity=20;strokeWidth=2;containerType=none;recursiveResize=0;movable=1;resizable=1;autosize=0;dropTarget=0" vertex="1" parent="1">
                <mxGeometry x="22" y="306.07891561478687" width="1841.315260246448" height="824.0789156147869" as="geometry"/>
              </mxCell>
              <mxCell id="1_label" value="React Frontend&lt;br&gt;JavaScript/React" style="edgeLabel;html=1;align=center;verticalAlign=middle;resizable=0;labelBackgroundColor=white;spacing=5" vertex="1" parent="1">
                <mxGeometry x="30" y="314.07891561478687" width="1765.315260246448" height="24" as="geometry"/>
              </mxCell>
<mxCell id="4" value="" style="html=1;whiteSpace=wrap;container=1;fillColor=#dae8fc;strokeColor=#6c8ebf;dashed=1;fillOpacity=20;strokeWidth=2;containerType=none;recursiveResize=0;movable=1;resizable=1;autosize=0;dropTarget=0" vertex="1" parent="1">
                <mxGeometry x="174.10522081971578" y="1300.1578312295737" width="1537.1048186070166" height="539.0789156147869" as="geometry"/>
              </mxCell>
              <mxCell id="4_label" value="Django Backend&lt;br&gt;Python/Django" style="edgeLabel;html=1;align=center;verticalAlign=middle;resizable=0;labelBackgroundColor=white;spacing=5" vertex="1" parent="1">
                <mxGeometry x="182.10522081971578" y="1308.1578312295737" width="1461.1048186070166" height="24" as="geometry"/>
              </mxCell>
              <mxCell id="29" value="Database&lt;br&gt;PostgreSQL" style="rounded=1;whiteSpace=wrap;html=1;fillColor=#f5f5f5" vertex="1" parent="1">
                    <mxGeometry x="828.5787145084371" y="1999.2367468443606" width="168.1578312295738" height="84.0789156147869" as="geometry"/>
                  </mxCell>
<mxCell id="6" value="User&lt;br&gt;External Actor" style="rounded=1;whiteSpace=wrap;html=1;fillColor=#f5f5f5" vertex="1" parent="1">
                    <mxGeometry x="828.5787145084371" y="12" width="168.1578312295738" height="84.0789156147869" as="geometry"/>
                  </mxCell>
<mxCell id="15" value="App Entry Point&lt;br&gt;React" style="rounded=1;whiteSpace=wrap;html=1;fillColor=#f5f5f5" vertex="1" parent="1">
                    <mxGeometry x="1579.1442764144097" y="120" width="168.1578312295738" height="84.0789156147869" as="geometry"/>
                  </mxCell>
<mxCell id="16" value="API Integration&lt;br&gt;Axios/Fetch" style="rounded=1;whiteSpace=wrap;html=1;fillColor=#f5f5f5" vertex="1" parent="1">
                    <mxGeometry x="1593.1574290168742" y="560" width="168.1578312295738" height="84.0789156147869" as="geometry"/>
                  </mxCell>
<mxCell id="17" value="Layouts&lt;br&gt;React" style="rounded=1;whiteSpace=wrap;html=1;fillColor=#f5f5f5" vertex="1" parent="1">
                    <mxGeometry x="40" y="355" width="168.1578312295738" height="84.0789156147869" as="geometry"/>
                  </mxCell>
<mxCell id="7" value="Core Project Config&lt;br&gt;Django" style="rounded=1;whiteSpace=wrap;html=1;fillColor=#f5f5f5" vertex="1" parent="4">
                    <mxGeometry x="674.4734936887213" y="120" width="168.1578312295738" height="84.0789156147869" as="geometry"/>
                  </mxCell>
<mxCell id="10" value="Investment Projects App&lt;br&gt;Django" style="rounded=1;whiteSpace=wrap;html=1;fillColor=#f5f5f5" vertex="1" parent="5">
                    <mxGeometry x="238.1578312295738" y="120" width="168.1578312295738" height="84.0789156147869" as="geometry"/>
                  </mxCell>
<mxCell id="11" value="Strategic Objectives App&lt;br&gt;Django" style="rounded=1;whiteSpace=wrap;html=1;fillColor=#f5f5f5" vertex="1" parent="5">
                    <mxGeometry x="832.6313249182951" y="120" width="168.1578312295738" height="84.0789156147869" as="geometry"/>
                  </mxCell>
<mxCell id="12" value="Audit App&lt;br&gt;Django" style="rounded=1;whiteSpace=wrap;html=1;fillColor=#f5f5f5" vertex="1" parent="5">
                    <mxGeometry x="40" y="120" width="168.1578312295738" height="84.0789156147869" as="geometry"/>
                  </mxCell>
<mxCell id="13" value="Core App&lt;br&gt;Django" style="rounded=1;whiteSpace=wrap;html=1;fillColor=#f5f5f5" vertex="1" parent="5">
                    <mxGeometry x="1030.7891561478689" y="120" width="168.1578312295738" height="84.0789156147869" as="geometry"/>
                  </mxCell>
<mxCell id="14" value="Reports App&lt;br&gt;Django" style="rounded=1;whiteSpace=wrap;html=1;fillColor=#f5f5f5" vertex="1" parent="5">
                    <mxGeometry x="1228.9469873774426" y="120" width="168.1578312295738" height="84.0789156147869" as="geometry"/>
                  </mxCell>
<mxCell id="18" value="Login Page&lt;br&gt;React" style="rounded=1;whiteSpace=wrap;html=1;fillColor=#f5f5f5" vertex="1" parent="3">
                    <mxGeometry x="238.1578312295738" y="120" width="168.1578312295738" height="84.0789156147869" as="geometry"/>
                  </mxCell>
<mxCell id="19" value="Home Page&lt;br&gt;React" style="rounded=1;whiteSpace=wrap;html=1;fillColor=#f5f5f5" vertex="1" parent="3">
                    <mxGeometry x="832.6313249182951" y="120" width="168.1578312295738" height="84.0789156147869" as="geometry"/>
                  </mxCell>
<mxCell id="20" value="Dashboard Page&lt;br&gt;React" style="rounded=1;whiteSpace=wrap;html=1;fillColor=#f5f5f5" vertex="1" parent="3">
                    <mxGeometry x="40" y="120" width="168.1578312295738" height="84.0789156147869" as="geometry"/>
                  </mxCell>
<mxCell id="21" value="Configuration Page&lt;br&gt;React" style="rounded=1;whiteSpace=wrap;html=1;fillColor=#f5f5f5" vertex="1" parent="3">
                    <mxGeometry x="1030.7891561478689" y="120" width="168.1578312295738" height="84.0789156147869" as="geometry"/>
                  </mxCell>
<mxCell id="22" value="Investment Projects Page&lt;br&gt;React" style="rounded=1;whiteSpace=wrap;html=1;fillColor=#f5f5f5" vertex="1" parent="3">
                    <mxGeometry x="1228.9469873774426" y="120" width="168.1578312295738" height="84.0789156147869" as="geometry"/>
                  </mxCell>
<mxCell id="23" value="Strategic Objectives Page&lt;br&gt;React" style="rounded=1;whiteSpace=wrap;html=1;fillColor=#f5f5f5" vertex="1" parent="3">
                    <mxGeometry x="436.3156624591476" y="120" width="168.1578312295738" height="84.0789156147869" as="geometry"/>
                  </mxCell>
<mxCell id="24" value="PAI Prioritization Page&lt;br&gt;React" style="rounded=1;whiteSpace=wrap;html=1;fillColor=#f5f5f5" vertex="1" parent="3">
                    <mxGeometry x="634.4734936887214" y="120" width="168.1578312295738" height="84.0789156147869" as="geometry"/>
                  </mxCell>
<mxCell id="25" value="Common UI Components&lt;br&gt;React" style="rounded=1;whiteSpace=wrap;html=1;fillColor=#f5f5f5" vertex="1" parent="2">
                    <mxGeometry x="238.1578312295738" y="120" width="168.1578312295738" height="84.0789156147869" as="geometry"/>
                  </mxCell>
<mxCell id="26" value="Configuration Components&lt;br&gt;React" style="rounded=1;whiteSpace=wrap;html=1;fillColor=#f5f5f5" vertex="1" parent="2">
                    <mxGeometry x="436.3156624591476" y="120" width="168.1578312295738" height="84.0789156147869" as="geometry"/>
                  </mxCell>
<mxCell id="27" value="Investment Project Components&lt;br&gt;React" style="rounded=1;whiteSpace=wrap;html=1;fillColor=#f5f5f5" vertex="1" parent="2">
                    <mxGeometry x="40" y="120" width="168.1578312295738" height="84.0789156147869" as="geometry"/>
                  </mxCell>
<mxCell id="28" value="Strategic Objectives Components&lt;br&gt;React" style="rounded=1;whiteSpace=wrap;html=1;fillColor=#f5f5f5" vertex="1" parent="2">
                    <mxGeometry x="634.4734936887214" y="120" width="168.1578312295738" height="84.0789156147869" as="geometry"/>
                  </mxCell>
<mxCell id="8" value="Authentication App&lt;br&gt;Django REST Framework" style="rounded=1;whiteSpace=wrap;html=1;fillColor=#f5f5f5" vertex="1" parent="5">
                    <mxGeometry x="436.3156624591476" y="120" width="168.1578312295738" height="84.0789156147869" as="geometry"/>
                  </mxCell>
<mxCell id="9" value="Institutional Config App&lt;br&gt;Django" style="rounded=1;whiteSpace=wrap;html=1;fillColor=#f5f5f5" vertex="1" parent="5">
                    <mxGeometry x="634.4734936887214" y="120" width="168.1578312295738" height="84.0789156147869" as="geometry"/>
                  </mxCell>
              <mxCell id="edge-1" style="edgeStyle=orthogonalEdgeStyle;rounded=1;orthogonalLoop=1;jettySize=auto;html=1;strokeColor=#808080;strokeWidth=2;jumpStyle=arc;jumpSize=10;spacing=15;labelBackgroundColor=white;labelBorderColor=none" edge="1" parent="1" source="6" target="1">
                  <mxGeometry relative="1" as="geometry"/>
                </mxCell>
                <mxCell id="edge-1_label" value="Interacts with" style="edgeLabel;html=1;align=center;verticalAlign=middle;resizable=0;points=[];" vertex="1" connectable="0" parent="edge-1">
                  <mxGeometry x="-0.2" y="10" relative="1" as="geometry">
                    <mxPoint as="offset"/>
                  </mxGeometry>
                </mxCell>
<mxCell id="edge-9" style="edgeStyle=orthogonalEdgeStyle;rounded=1;orthogonalLoop=1;jettySize=auto;html=1;strokeColor=#808080;strokeWidth=2;jumpStyle=arc;jumpSize=10;spacing=15;labelBackgroundColor=white;labelBorderColor=none" edge="1" parent="1" source="3" target="2">
                  <mxGeometry relative="1" as="geometry"/>
                </mxCell>
                <mxCell id="edge-9_label" value="Composes" style="edgeLabel;html=1;align=center;verticalAlign=middle;resizable=0;points=[];" vertex="1" connectable="0" parent="edge-9">
                  <mxGeometry x="-0.2" y="10" relative="1" as="geometry">
                    <mxPoint as="offset"/>
                  </mxGeometry>
                </mxCell>
<mxCell id="edge-8" style="edgeStyle=orthogonalEdgeStyle;rounded=1;orthogonalLoop=1;jettySize=auto;html=1;strokeColor=#808080;strokeWidth=2;jumpStyle=arc;jumpSize=10;spacing=15;labelBackgroundColor=white;labelBorderColor=none" edge="1" parent="1" source="3" target="16">
                  <mxGeometry relative="1" as="geometry"/>
                </mxCell>
                <mxCell id="edge-8_label" value="Uses" style="edgeLabel;html=1;align=center;verticalAlign=middle;resizable=0;points=[];" vertex="1" connectable="0" parent="edge-8">
                  <mxGeometry x="-0.2" y="10" relative="1" as="geometry">
                    <mxPoint as="offset"/>
                  </mxGeometry>
                </mxCell>
<mxCell id="edge-10" style="edgeStyle=orthogonalEdgeStyle;rounded=1;orthogonalLoop=1;jettySize=auto;html=1;strokeColor=#808080;strokeWidth=2;jumpStyle=arc;jumpSize=10;spacing=15;labelBackgroundColor=white;labelBorderColor=none" edge="1" parent="1" source="17" target="2">
                  <mxGeometry relative="1" as="geometry"/>
                </mxCell>
                <mxCell id="edge-10_label" value="Uses" style="edgeLabel;html=1;align=center;verticalAlign=middle;resizable=0;points=[];" vertex="1" connectable="0" parent="edge-10">
                  <mxGeometry x="-0.2" y="10" relative="1" as="geometry">
                    <mxPoint as="offset"/>
                  </mxGeometry>
                </mxCell>
<mxCell id="edge-7" style="edgeStyle=orthogonalEdgeStyle;rounded=1;orthogonalLoop=1;jettySize=auto;html=1;strokeColor=#808080;strokeWidth=2;jumpStyle=arc;jumpSize=10;spacing=15;labelBackgroundColor=white;labelBorderColor=none" edge="1" parent="1" source="15" target="3">
                  <mxGeometry relative="1" as="geometry"/>
                </mxCell>
                <mxCell id="edge-7_label" value="Renders" style="edgeLabel;html=1;align=center;verticalAlign=middle;resizable=0;points=[];" vertex="1" connectable="0" parent="edge-7">
                  <mxGeometry x="-0.2" y="10" relative="1" as="geometry">
                    <mxPoint as="offset"/>
                  </mxGeometry>
                </mxCell>
<mxCell id="edge-5" style="edgeStyle=orthogonalEdgeStyle;rounded=1;orthogonalLoop=1;jettySize=auto;html=1;strokeColor=#808080;strokeWidth=2;jumpStyle=arc;jumpSize=10;spacing=15;labelBackgroundColor=white;labelBorderColor=none" edge="1" parent="1" source="15" target="16">
                  <mxGeometry relative="1" as="geometry"/>
                </mxCell>
                <mxCell id="edge-5_label" value="Initializes" style="edgeLabel;html=1;align=center;verticalAlign=middle;resizable=0;points=[];" vertex="1" connectable="0" parent="edge-5">
                  <mxGeometry x="-0.2" y="10" relative="1" as="geometry">
                    <mxPoint as="offset"/>
                  </mxGeometry>
                </mxCell>
<mxCell id="edge-6" style="edgeStyle=orthogonalEdgeStyle;rounded=1;orthogonalLoop=1;jettySize=auto;html=1;strokeColor=#808080;strokeWidth=2;jumpStyle=arc;jumpSize=10;spacing=15;labelBackgroundColor=white;labelBorderColor=none" edge="1" parent="1" source="15" target="17">
                  <mxGeometry relative="1" as="geometry"/>
                </mxCell>
                <mxCell id="edge-6_label" value="Uses" style="edgeLabel;html=1;align=center;verticalAlign=middle;resizable=0;points=[];" vertex="1" connectable="0" parent="edge-6">
                  <mxGeometry x="-0.2" y="10" relative="1" as="geometry">
                    <mxPoint as="offset"/>
                  </mxGeometry>
                </mxCell>
<mxCell id="edge-2" style="edgeStyle=orthogonalEdgeStyle;rounded=1;orthogonalLoop=1;jettySize=auto;html=1;strokeColor=#808080;strokeWidth=2;jumpStyle=arc;jumpSize=10;spacing=15;labelBackgroundColor=white;labelBorderColor=none" edge="1" parent="1" source="1" target="4">
                  <mxGeometry relative="1" as="geometry"/>
                </mxCell>
                <mxCell id="edge-2_label" value="Makes API requests" style="edgeLabel;html=1;align=center;verticalAlign=middle;resizable=0;points=[];" vertex="1" connectable="0" parent="edge-2">
                  <mxGeometry x="-0.2" y="10" relative="1" as="geometry">
                    <mxPoint as="offset"/>
                  </mxGeometry>
                </mxCell>
<mxCell id="edge-4" style="edgeStyle=orthogonalEdgeStyle;rounded=1;orthogonalLoop=1;jettySize=auto;html=1;strokeColor=#808080;strokeWidth=2;jumpStyle=arc;jumpSize=10;spacing=15;labelBackgroundColor=white;labelBorderColor=none" edge="1" parent="1" source="7" target="5">
                  <mxGeometry relative="1" as="geometry"/>
                </mxCell>
                <mxCell id="edge-4_label" value="Configures" style="edgeLabel;html=1;align=center;verticalAlign=middle;resizable=0;points=[];" vertex="1" connectable="0" parent="edge-4">
                  <mxGeometry x="-0.2" y="10" relative="1" as="geometry">
                    <mxPoint as="offset"/>
                  </mxGeometry>
                </mxCell>
<mxCell id="edge-3" style="edgeStyle=orthogonalEdgeStyle;rounded=1;orthogonalLoop=1;jettySize=auto;html=1;strokeColor=#808080;strokeWidth=2;jumpStyle=arc;jumpSize=10;spacing=15;labelBackgroundColor=white;labelBorderColor=none" edge="1" parent="1" source="4" target="29">
                  <mxGeometry relative="1" as="geometry"/>
                </mxCell>
                <mxCell id="edge-3_label" value="Reads/Writes" style="edgeLabel;html=1;align=center;verticalAlign=middle;resizable=0;points=[];" vertex="1" connectable="0" parent="edge-3">
                  <mxGeometry x="-0.2" y="10" relative="1" as="geometry">
                    <mxPoint as="offset"/>
                  </mxGeometry>
                </mxCell>
            </root>
          </mxGraphModel>
        </diagram>
      </mxfile>